<svg xmlns="http://www.w3.org/2000/svg" width="32" height="32" viewBox="0 0 32 32">
  <g id="Iconography/Train" fill-rule="evenodd" stroke-width="1">
    <rect id="Rectangle" width="32" height="32" x="0" y="0" fill-opacity="0"/>
    <path d="M20.8111491,25.147045 L20.8111491,26 L11.1888952,26 L11.1888952,25.147045 L20.8111491,25.147045 Z M17.7146555,6 C18.1473091,6 18.4991619,6.35732978 18.4991619,6.79925973 C18.4991619,6.85658996 18.4919441,6.91174825 18.4811617,6.96615239 C19.3557427,7.15144623 20.2311223,7.34115936 21.0235417,7.79262173 C21.6493896,8.14850355 22.0056056,8.67203217 22.07839,9.41688776 C22.1671186,10.3139452 22.3048188,11.2073225 22.4151564,12.1029169 C22.513913,12.9036246 22.6696576,13.7036385 22.6833833,14.5058394 C22.7053149,15.7392345 22.7043981,18.3651588 22.7029475,19.4549809 L22.7020934,19.9448508 C22.7020934,21.1891928 21.7037302,22.2072908 20.4835085,22.2072908 L20.4835085,22.2072908 L19.8936608,22.2072908 C21.4669776,23.3197778 23.4130463,24.826412 25,25.9477226 C24.4715035,25.9477226 24.0453725,25.938899 23.6213862,25.9514028 C23.3445364,25.9595023 23.1830234,25.9109654 23.0229155,25.7977379 C21.7683206,24.911706 20.0760432,23.6058256 18.820694,22.7197938 C18.670762,22.6131725 18.5150174,22.5741982 18.2597618,22.5756764 C17.5066558,22.5780896 16.7533131,22.5801862 16,22.5795074 C15.2466869,22.5801862 14.4933442,22.5780896 13.7402382,22.5756764 C13.4849826,22.5742133 13.329238,22.6131876 13.179306,22.7197938 C11.9239568,23.6058256 10.2316942,24.911706 8.97708448,25.7977379 C8.8169914,25.9109504 8.65547843,25.9594872 8.37861383,25.9514028 C7.95462747,25.938899 7.52849649,25.9477226 7,25.9477226 C8.58699811,24.826412 10.5330668,23.3197778 12.1063836,22.2072908 L12.1063836,22.2072908 L11.5165506,22.2072908 C10.296329,22.2072908 9.2979658,21.1891928 9.2979658,19.9448508 C9.2979658,19.9448508 9.28860338,16.0846002 9.31667587,14.5058394 C9.33040151,13.7036535 9.48614617,12.9036397 9.58490278,12.1029169 C9.6952404,11.2073225 9.83294056,10.3139452 9.92166916,9.41688776 C9.99446833,8.67204725 10.3506695,8.14851863 10.9765175,7.79262173 C11.7689369,7.34115936 12.6443165,7.15144623 13.5188974,6.96615239 C13.5081151,6.91174825 13.5008973,6.85660504 13.5008973,6.79925973 C13.5008973,6.35732978 13.8527648,6 14.2854037,6 L14.2854037,6 Z M18.4219847,23.4104413 L18.4219847,24.2633963 L13.5780745,24.2633963 L13.5780745,23.4104413 L18.4219847,23.4104413 Z M11.7019504,16.8014095 C11.0761024,16.8036338 10.5850852,17.3006919 10.5821657,17.936709 C10.5785626,18.5801017 11.0544786,19.0830421 11.6788771,19.0940677 C12.3299874,19.1058324 12.8339759,18.6139176 12.839759,17.9602384 C12.8462669,17.3087914 12.3451329,16.7992145 11.7019504,16.8014095 Z M20.2981236,16.8014094 C19.6549262,16.7991994 19.1538071,17.3087914 19.1603149,17.9602384 C19.1660833,18.6139176 19.6700718,19.1058324 20.3211821,19.0940677 C20.9455806,19.0830421 21.4214966,18.5801017 21.4179081,17.936709 C21.414974,17.3006919 20.9239716,16.8036187 20.2981236,16.8014094 Z M15.9331564,8.78539927 L11.9879949,8.78714512 C11.8423226,8.78714512 11.6959552,8.79889472 11.5524867,8.8224241 C11.1760668,8.88566684 10.9835824,9.07537998 10.9294933,9.46361469 C10.7931982,10.428304 10.6590922,12.8501103 10.5307692,13.8162778 C11.085238,14.1979062 11.6678235,14.4398063 12.2937159,14.5839237 C13.0428433,14.7574679 13.798508,14.7964272 14.5613611,14.6956882 C15.3220546,14.5971665 16.0546166,14.3736224 16.7966149,14.1890827 C17.3099806,14.0611341 17.8240859,13.9508477 18.3547418,13.921436 C18.4499339,13.9155537 18.5443716,13.9140755 18.6381142,13.9148297 C19.2949928,13.9236381 19.9172763,14.0912849 20.5056302,14.3986148 C20.8135106,14.5603792 21.100492,14.7677243 21.3982556,14.9552354 C21.4134012,14.9662459 21.4285319,14.9780408 21.4465764,14.9934706 C21.4624171,14.8839082 21.4580983,14.7500773 21.4357497,14.5831696 C21.2843683,13.4471381 21.1048108,10.8569761 20.9678058,9.71874251 C20.8675997,8.89007106 20.5885313,8.78639097 19.8783179,8.78639097 C17.2479638,8.78494301 14.6183491,8.78494301 11.9879949,8.78714512 Z"/>
  </g>
</svg>
